Coordinates
version=1
nRows=21
nColumns=12
inDegrees=yes

Units are S.I. units (second, meters, Newtons, ...)
Angles are in degrees

endheader
time	SC_y	SC_z	SC_x	AC_y	AC_z	AC_x	GH_y	GH_z	GH_yy	EL_x	PS_y
       0.0              -36.44         -1.904          31.83          65.34         -10.54         -11.88          153.8          23.54         -121.8          115.0          6.206
   0.04776              -36.44         -1.903          31.82          65.34         -10.54         -11.88          153.8          23.54         -121.8          115.0          6.216
   0.09551              -36.43         -1.901          31.82          65.33         -10.54         -11.88          153.8          23.53         -121.8          115.0          6.226
    0.1433              -36.43           -1.9          31.82          65.33         -10.54         -11.88          153.8          23.53         -121.8          115.0          6.237
     0.191              -36.43         -1.899          31.82          65.33         -10.54         -11.88          153.7          23.53         -121.8          114.9          6.248
    0.2388              -36.42         -1.897          31.82          65.32         -10.54         -11.88          153.7          23.52         -121.8          114.9          6.261
    0.2865              -36.42         -1.895          31.81          65.32         -10.54         -11.88          153.7          23.52         -121.8          114.9          6.274
    0.3343              -36.42         -1.894          31.81          65.31         -10.54         -11.88          153.7          23.51         -121.8          114.9          6.288
    0.3821              -36.41         -1.892          31.81          65.31         -10.54         -11.88          153.7          23.51         -121.8          114.9          6.303
    0.4298              -36.41          -1.89          31.81           65.3         -10.54         -11.88          153.7           23.5         -121.8          114.9           6.32
    0.4776               -36.4         -1.887           31.8           65.3         -10.54         -11.88          153.7           23.5         -121.8          114.9          6.337
    0.5253               -36.4         -1.885           31.8          65.29         -10.54         -11.88          153.6          23.49         -121.8          114.8          6.356
    0.5731              -36.39         -1.883           31.8          65.28         -10.54         -11.89          153.6          23.48         -121.8          114.8          6.376
    0.6208              -36.39          -1.88          31.79          65.28         -10.54         -11.89          153.6          23.48         -121.8          114.8          6.398
    0.6686              -36.38         -1.877          31.79          65.27         -10.54         -11.89          153.6          23.47         -121.8          114.8          6.422
    0.7163              -36.38         -1.874          31.78          65.26         -10.54         -11.89          153.5          23.46         -121.8          114.7          6.448
    0.7641              -36.37          -1.87          31.78          65.25         -10.54         -11.89          153.5          23.45         -121.8          114.7          6.475
    0.8119              -36.36         -1.866          31.77          65.24         -10.54         -11.89          153.5          23.44         -121.8          114.7          6.506
    0.8596              -36.35         -1.862          31.77          65.23         -10.54         -11.89          153.4          23.43         -121.8          114.6          6.539
    0.9074              -36.34         -1.858          31.76          65.22         -10.54         -11.89          153.4          23.42         -121.8          114.6          6.575
    0.9551              -36.33         -1.853          31.76          65.21         -10.54         -11.89          153.4           23.4         -121.8          114.6          6.615
